<svg xmlns="http://www.w3.org/2000/svg" viewBox="0 0 61.93 61.93"><defs><style>.cls-1{fill:#e1c089;}.cls-2{fill:#fff;}</style></defs><g id="Layer_2" data-name="Layer 2"><g id="Footer"><rect class="cls-1" width="61.93" height="61.93"/><path class="cls-2" d="M31,16.76c4.62,0,5.18,0,7,.1a9.33,9.33,0,0,1,3.22.6,5.73,5.73,0,0,1,3.28,3.28,9.34,9.34,0,0,1,.6,3.23c.09,1.82.1,2.38.1,7s0,5.19-.1,7a9.33,9.33,0,0,1-.6,3.22,5.72,5.72,0,0,1-3.28,3.29,9.33,9.33,0,0,1-3.22.6c-1.83.09-2.38.1-7,.1s-5.18,0-7-.1a9.33,9.33,0,0,1-3.22-.6,5.76,5.76,0,0,1-3.29-3.29,9.57,9.57,0,0,1-.6-3.22c-.08-1.82-.1-2.38-.1-7s0-5.18.1-7a9.58,9.58,0,0,1,.6-3.23,5.77,5.77,0,0,1,3.29-3.28,9.33,9.33,0,0,1,3.22-.6c1.83-.09,2.38-.1,7-.1m0-3.13c-4.71,0-5.3,0-7.15.1a12.89,12.89,0,0,0-4.21.81,8.81,8.81,0,0,0-5.1,5.1,12.69,12.69,0,0,0-.81,4.22c-.08,1.85-.1,2.44-.1,7.14s0,5.3.1,7.15a12.59,12.59,0,0,0,.81,4.21,8.79,8.79,0,0,0,5.1,5.1,12.64,12.64,0,0,0,4.21.81c1.85.08,2.44.1,7.15.1s5.29,0,7.15-.1a12.69,12.69,0,0,0,4.21-.81,8.81,8.81,0,0,0,5.1-5.1,12.84,12.84,0,0,0,.81-4.21c.08-1.85.1-2.44.1-7.15s0-5.29-.1-7.14a13,13,0,0,0-.81-4.22,8.84,8.84,0,0,0-5.1-5.1,12.94,12.94,0,0,0-4.21-.81C36.26,13.65,35.67,13.63,31,13.63Z"/><path class="cls-2" d="M31,22.06A8.91,8.91,0,1,0,39.87,31h0A8.91,8.91,0,0,0,31,22.06Zm0,14.69A5.78,5.78,0,1,1,36.75,31h0A5.78,5.78,0,0,1,31,36.75Z"/><circle class="cls-2" cx="40.22" cy="21.71" r="2.08"/></g></g></svg>