<svg xmlns="http://www.w3.org/2000/svg" viewBox="0 0 61.93 61.93"><defs><style>.cls-1{fill:#e1c089;}.cls-2{fill:#fff;}</style></defs><g id="Layer_2" data-name="Layer 2"><g id="Footer"><rect class="cls-1" width="61.93" height="61.93"/><path class="cls-2" d="M46.39,13.63H15.54a1.9,1.9,0,0,0-1.91,1.91h0V46.39a1.91,1.91,0,0,0,1.91,1.92H32.15V34.88H27.63V29.64h4.52V25.79c0-4.48,2.74-6.93,6.73-6.93a38.9,38.9,0,0,1,4,.21v4.68H40.15c-2.19,0-2.6,1-2.6,2.55v3.34h5.19l-.68,5.24H37.55V48.31h8.84a1.92,1.92,0,0,0,1.92-1.92h0V15.54a1.91,1.91,0,0,0-1.92-1.91Z"/></g></g></svg>