<svg xmlns="http://www.w3.org/2000/svg" viewBox="0 0 61.93 61.93"><defs><style>.cls-1{fill:#e1c089;}.cls-2{fill:#f4f0e1;}</style></defs><g id="Layer_2" data-name="Layer 2"><g id="Footer"><rect class="cls-1" width="61.93" height="61.93"/><path class="cls-2" d="M35.62,49.55c3.72,0,7.41-1.33,8.62-2.92l.25-.32-2.3-6.82a.17.17,0,0,0-.15-.11H36.89a.16.16,0,0,1-.15-.11,3.55,3.55,0,0,1-.1-.86V30a.15.15,0,0,1,.15-.15h6.06a.15.15,0,0,0,.15-.15h0V21.18a.15.15,0,0,0-.15-.15h-6a.15.15,0,0,1-.15-.15h0V12.54a.16.16,0,0,0-.16-.15H25.93A1.8,1.8,0,0,0,24.17,14c-.53,4.3-2.5,6.88-6.21,8.12l-.41.14a.14.14,0,0,0-.11.14v7.35a.16.16,0,0,0,.16.15h3.79v9C21.39,46.15,26.38,49.55,35.62,49.55Zm7.09-3.49a9.39,9.39,0,0,1-5.83,2h-.25c-7.51,0-9.47-5.73-9.47-9.12V28.52a.16.16,0,0,0-.16-.15H23.35a.16.16,0,0,1-.15-.16h0V23.47a.16.16,0,0,1,.09-.14c3.89-1.51,6.05-4.52,6.63-9.16a.26.26,0,0,1,.24-.26H35a.16.16,0,0,1,.17.15h0V22.4a.15.15,0,0,0,.15.15h6a.15.15,0,0,1,.15.15h0v5.51a.15.15,0,0,1-.15.16h-6a.15.15,0,0,0-.16.15v9.89c0,2.19,1.11,3.36,3.2,3.36A7.77,7.77,0,0,0,41,41.23a.15.15,0,0,1,.19.08v0l1.54,4.57A.16.16,0,0,1,42.71,46.06Z"/></g></g></svg>