<svg xmlns="http://www.w3.org/2000/svg" viewBox="0 0 61.93 61.93"><defs><style>.cls-1{fill:#e1c089;}.cls-2{fill:#fff;}</style></defs><g id="Layer_2" data-name="Layer 2"><g id="Footer"><rect class="cls-1" width="61.93" height="61.93"/><path class="cls-2" d="M48.31,20.21a14.2,14.2,0,0,1-4.09,1.12,7.12,7.12,0,0,0,3.13-3.94,14,14,0,0,1-4.52,1.73A7.12,7.12,0,0,0,30.52,24a6.83,6.83,0,0,0,.19,1.62A20.25,20.25,0,0,1,16,18.22a7.11,7.11,0,0,0,2.19,9.47A7.14,7.14,0,0,1,15,26.8v.09a7.12,7.12,0,0,0,5.71,7,7.26,7.26,0,0,1-3.21.12,7.1,7.1,0,0,0,6.64,4.94,14.27,14.27,0,0,1-8.83,3,13.85,13.85,0,0,1-1.7-.1,20.1,20.1,0,0,0,10.93,3.2c13.12,0,20.25-10.84,20.25-20.24v-.93A14.36,14.36,0,0,0,48.31,20.21Z"/></g></g></svg>